<svg width="24" height="24" viewBox="0 0 24 24" fill="none" xmlns="http://www.w3.org/2000/svg">
<g id="Google Docs">
<path id="Vector" opacity="0.3" d="M19 20C19 20.6 18.6 21 18 21H6C5.4 21 5 20.6 5 20V4C5 3.4 5.4 3 6 3H15L19 7V20Z" fill="black"/>
<path id="Vector_2" d="M8 10H16V12H8V10ZM8 13H16V15H8V13ZM8 16H13V18H8V16Z" fill="black"/>
<path id="Vector_3" d="M18 22H6C4.9 22 4 21.1 4 20V4C4 2.9 4.9 2 6 2H15.4L20 6.6V20C20 21.1 19.1 22 18 22ZM6 4V20H18V7.4L14.6 4H6Z" fill="black"/>
<path id="Vector_4" d="M19.5 8H14V2.5L19.5 8Z" fill="black"/>
</g>
</svg>
