<svg width="24" height="24" viewBox="0 0 24 24" fill="none" xmlns="http://www.w3.org/2000/svg">
<g id="Telegram App">
<path id="Vector" d="M20.3027 2.98455C20.0138 2.99712 19.7486 3.08023 19.5156 3.17205C19.3004 3.25681 18.5275 3.58165 17.2969 4.09783C16.0662 4.61401 14.4355 5.29841 12.6973 6.02947C9.22084 7.4916 5.31424 9.1363 3.3125 9.97869C3.24376 10.0073 2.96459 10.0928 2.65625 10.3283C2.3472 10.5644 2.00391 11.0766 2.00391 11.6369C2.00391 12.0888 2.22952 12.5491 2.50195 12.8127C2.77439 13.0762 3.05049 13.1994 3.28125 13.2912V13.2892C4.06128 13.6 6.39069 14.5321 6.94531 14.7541C7.14204 15.3436 7.98659 17.8675 8.1875 18.5021H8.18555C8.32756 18.9513 8.46598 19.2441 8.6582 19.4885C8.75432 19.6106 8.86904 19.7214 9.00977 19.8088C9.06376 19.8423 9.12355 19.8683 9.18359 19.8928C9.19196 19.8963 9.20059 19.8972 9.20898 19.9006L9.18555 19.8947C9.20296 19.9017 9.21858 19.912 9.23633 19.9181C9.26524 19.9281 9.28529 19.9278 9.32422 19.9357C9.46122 19.9779 9.59798 20.006 9.72461 20.006C10.2682 20.006 10.6016 19.7111 10.6016 19.7111L10.623 19.6955L12.9707 17.7092L15.8457 20.3693C15.8982 20.4435 16.3096 21.0002 17.2617 21.0002C17.8298 21.0002 18.279 20.719 18.5664 20.424C18.8538 20.129 19.0328 19.8272 19.1133 19.4181L19.1152 19.4162C19.1794 19.086 21.9316 5.2658 21.9316 5.2658L21.9258 5.28924C22.0114 4.90689 22.0367 4.53714 21.9355 4.16033C21.8344 3.78352 21.5613 3.4158 21.2324 3.22283C20.9036 3.02986 20.5917 2.97198 20.3027 2.98455ZM19.9082 5.174C19.7994 5.72003 17.334 18.1061 17.1816 18.883L13.0293 15.0412L10.2227 17.4142L11 14.3752C11 14.3752 16.3625 8.94703 16.6855 8.63103C16.9455 8.37803 17 8.28935 17 8.20135C17 8.08435 16.9398 8.00017 16.8008 8.00017C16.6758 8.00017 16.506 8.11996 16.416 8.17596C15.2724 8.88896 10.4013 11.6649 8.00586 13.0275C7.8617 12.9697 5.6974 12.1006 4.53125 11.6349C6.60551 10.7619 10.1612 9.26598 13.4727 7.87322C15.2106 7.14228 16.8408 6.45727 18.0703 5.94158C19.1082 5.50627 19.6495 5.28088 19.9082 5.174ZM17.1523 19.0256H17.1543L17.1523 19.0314C17.1536 19.025 17.1514 19.0306 17.1523 19.0256Z" fill="black"/>
</g>
</svg>
